<?xml version="1.0" encoding="UTF-8"?>
<svg width="150px" height="162px" viewBox="0 0 150 162" version="1.1" xmlns="http://www.w3.org/2000/svg" xmlns:xlink="http://www.w3.org/1999/xlink">
    <!-- Generator: Sketch 52.6 (67491) - http://www.bohemiancoding.com/sketch -->
    <title>Group 4</title>
    <desc>Created with Sketch.</desc>
    <g id="Page-1" stroke="none" stroke-width="1" fill="none" fill-rule="evenodd" fill-opacity="0.143739073" opacity="0.696591332">
        <g id="Tsara-landingpage" transform="translate(-699.000000, -2956.000000)" fill="#9B9B9B">
            <g id="book-i-read" transform="translate(95.000000, 2442.000000)">
                <g id="Group-4" transform="translate(679.000000, 595.000000) scale(1, -1) translate(-679.000000, -595.000000) translate(604.000000, 514.000000)">
                    <ellipse id="Oval" cx="6.06060606" cy="6.05607477" rx="6.06060606" ry="6.05607477"></ellipse>
                    <ellipse id="Oval" cx="6.06060606" cy="36.3364486" rx="6.06060606" ry="6.05607477"></ellipse>
                    <ellipse id="Oval" cx="6.06060606" cy="65.1028037" rx="6.06060606" ry="6.05607477"></ellipse>
                    <ellipse id="Oval" cx="6.06060606" cy="95.3831776" rx="6.06060606" ry="6.05607477"></ellipse>
                    <ellipse id="Oval" cx="6.06060606" cy="125.663551" rx="6.06060606" ry="6.05607477"></ellipse>
                    <ellipse id="Oval" cx="6.06060606" cy="155.943925" rx="6.06060606" ry="6.05607477"></ellipse>
                    <ellipse id="Oval" cx="33.3333333" cy="6.05607477" rx="6.06060606" ry="6.05607477"></ellipse>
                    <ellipse id="Oval" cx="33.3333333" cy="36.3364486" rx="6.06060606" ry="6.05607477"></ellipse>
                    <ellipse id="Oval" cx="33.3333333" cy="65.1028037" rx="6.06060606" ry="6.05607477"></ellipse>
                    <ellipse id="Oval" cx="33.3333333" cy="95.3831776" rx="6.06060606" ry="6.05607477"></ellipse>
                    <ellipse id="Oval" cx="33.3333333" cy="125.663551" rx="6.06060606" ry="6.05607477"></ellipse>
                    <ellipse id="Oval" cx="33.3333333" cy="155.943925" rx="6.06060606" ry="6.05607477"></ellipse>
                    <ellipse id="Oval" cx="60.6060606" cy="6.05607477" rx="6.06060606" ry="6.05607477"></ellipse>
                    <ellipse id="Oval" cx="60.6060606" cy="36.3364486" rx="6.06060606" ry="6.05607477"></ellipse>
                    <ellipse id="Oval" cx="60.6060606" cy="65.1028037" rx="6.06060606" ry="6.05607477"></ellipse>
                    <ellipse id="Oval" cx="60.6060606" cy="95.3831776" rx="6.06060606" ry="6.05607477"></ellipse>
                    <ellipse id="Oval" cx="60.6060606" cy="125.663551" rx="6.06060606" ry="6.05607477"></ellipse>
                    <ellipse id="Oval" cx="60.6060606" cy="155.943925" rx="6.06060606" ry="6.05607477"></ellipse>
                    <ellipse id="Oval" cx="89.3939394" cy="6.05607477" rx="6.06060606" ry="6.05607477"></ellipse>
                    <ellipse id="Oval" cx="89.3939394" cy="36.3364486" rx="6.06060606" ry="6.05607477"></ellipse>
                    <ellipse id="Oval" cx="89.3939394" cy="65.1028037" rx="6.06060606" ry="6.05607477"></ellipse>
                    <ellipse id="Oval" cx="89.3939394" cy="95.3831776" rx="6.06060606" ry="6.05607477"></ellipse>
                    <ellipse id="Oval" cx="89.3939394" cy="125.663551" rx="6.06060606" ry="6.05607477"></ellipse>
                    <ellipse id="Oval" cx="89.3939394" cy="155.943925" rx="6.06060606" ry="6.05607477"></ellipse>
                    <ellipse id="Oval" cx="116.666667" cy="6.05607477" rx="6.06060606" ry="6.05607477"></ellipse>
                    <ellipse id="Oval" cx="116.666667" cy="36.3364486" rx="6.06060606" ry="6.05607477"></ellipse>
                    <ellipse id="Oval" cx="116.666667" cy="65.1028037" rx="6.06060606" ry="6.05607477"></ellipse>
                    <ellipse id="Oval" cx="116.666667" cy="95.3831776" rx="6.06060606" ry="6.05607477"></ellipse>
                    <ellipse id="Oval" cx="116.666667" cy="125.663551" rx="6.06060606" ry="6.05607477"></ellipse>
                    <ellipse id="Oval" cx="116.666667" cy="155.943925" rx="6.06060606" ry="6.05607477"></ellipse>
                    <ellipse id="Oval" cx="143.939394" cy="6.05607477" rx="6.06060606" ry="6.05607477"></ellipse>
                    <ellipse id="Oval" cx="143.939394" cy="36.3364486" rx="6.06060606" ry="6.05607477"></ellipse>
                    <ellipse id="Oval" cx="143.939394" cy="65.1028037" rx="6.06060606" ry="6.05607477"></ellipse>
                    <ellipse id="Oval" cx="143.939394" cy="95.3831776" rx="6.06060606" ry="6.05607477"></ellipse>
                    <ellipse id="Oval" cx="143.939394" cy="125.663551" rx="6.06060606" ry="6.05607477"></ellipse>
                    <ellipse id="Oval" cx="143.939394" cy="155.943925" rx="6.06060606" ry="6.05607477"></ellipse>
                </g>
            </g>
        </g>
    </g>
</svg>