<?xml version="1.0" encoding="UTF-8"?>
<svg width="15px" height="16px" viewBox="0 0 15 16" version="1.1" xmlns="http://www.w3.org/2000/svg" xmlns:xlink="http://www.w3.org/1999/xlink">
    <!-- Generator: Sketch 52.6 (67491) - http://www.bohemiancoding.com/sketch -->
    <title>share-button</title>
    <desc>Created with Sketch.</desc>
    <defs>
        <polygon id="path-1" points="0.06 0.08 14.32 0.08 14.32 16.002 0.06 16.002"></polygon>
    </defs>
    <g id="Page-1" stroke="none" stroke-width="1" fill="none" fill-rule="evenodd" opacity="0.5">
        <g id="Tsara-landingpage-Copy" transform="translate(-253.000000, -1831.000000)">
            <g id="blog" transform="translate(95.000000, 226.000000)">
                <g id="share" transform="translate(155.000000, 1567.000000)">
                    <g id="date" transform="translate(3.000000, 34.000000)">
                        <g id="share-button" transform="translate(7.500000, 12.500000) scale(-1, 1) translate(-7.500000, -12.500000) translate(0.000000, 4.000000)">
                            <mask id="mask-2" fill="white">
                                <use xlink:href="#path-1"></use>
                            </mask>
                            <g id="Clip-2"></g>
                            <path d="M12,5.682 C11.359,5.682 10.801,5.92 10.398,6.318 L4.719,3.041 C4.801,2.881 4.801,2.639 4.801,2.478 C4.801,1.119 3.762,0.08 2.398,0.08 C1.039,0.08 0,1.119 0,2.478 C0,3.842 1.039,4.881 2.398,4.881 C3.039,4.881 3.602,4.639 4,4.24 L9.68,7.521 C9.602,7.682 9.602,7.92 9.602,8.08 C9.602,8.24 9.602,8.478 9.68,8.639 L4,12.002 C3.602,11.6 3.039,11.361 2.398,11.361 C1.121,11.361 0.078,12.4 0.078,13.682 C0.078,14.959 1.121,16.002 2.398,16.002 C3.68,16.002 4.719,14.959 4.719,13.682 C4.719,13.521 4.719,13.361 4.641,13.119 L10.32,9.76 C10.719,10.158 11.281,10.4 11.922,10.4 C13.281,10.4 14.32,9.361 14.32,8.002 C14.32,6.639 13.359,5.682 12,5.682 Z" id="Fill-1" fill="#000000" mask="url(#mask-2)"></path>
                        </g>
                    </g>
                </g>
            </g>
        </g>
    </g>
</svg>