<svg viewBox="2.842170943040401e-14 131.04000000000005 407.61290322580635 544.3199999999999" fill="none" xmlns="http://www.w3.org/2000/svg" xmlns:xlink="http://www.w3.org/1999/xlink" overflow="visible" width="377.4193548387096px" height="503.9999999999999px"><rect id="Blush Background Color" fill="#ffffff" x="2.842170943040401e-14" y="131.04000000000005" width="407.61290322580635" height="544.3199999999999"/><g id="Master/Profile Character/Avatar"><g id="Profile Head Adult" transform="translate(-49 27) scale(3.3401360544217686 3.335483870967742)"><g id="Profile Head Adult/Hijab"><g id="Group 54"><path id="Fill 1" fill-rule="evenodd" clip-rule="evenodd" d="M60.9849 116.347C60.9299 116.346 60.9819 115.459 60.9639 115.437L60.9849 116.347Z" fill="#edb39d"/><path id="Fill 3" fill-rule="evenodd" clip-rule="evenodd" d="M131.495 97.8469C131.588 100.658 128.74 103.391 125.955 101.997C126.338 114.504 120.438 130.332 108.805 136.417C89.1277 141.625 81.9287 103.571 83.4437 91.0879C84.0047 83.2829 86.0037 81.8469 90.2237 73.2469C96.7017 61.5039 98.8787 56.0419 109.255 55.2069C113.435 54.7979 117.999 57.1669 120.215 61.0969C119.535 59.8169 119.305 58.1869 118.915 56.6269C123.429 70.2289 121.955 86.3029 131.495 97.8469" fill="#edb39d"/><path id="Fill 5" fill-rule="evenodd" clip-rule="evenodd" d="M114.205 149.187C113.695 149.187 113.385 148.267 113.975 148.267C114.475 148.267 114.795 149.187 114.205 149.187M111.745 147.087C111.71 147.725 110.821 147.397 110.855 146.887C110.9 146.656 110.735 145.351 110.985 145.207C112.024 144.741 111.698 146.59 111.745 147.087M82.0747 69.4968C80.7377 69.0218 82.8537 67.7158 83.1447 67.2568C84.9597 67.0768 82.8047 69.3838 82.0747 69.4968M78.2647 66.8968C77.7867 67.3698 77.0057 69.2548 76.4047 67.9968C76.4017 67.2348 78.3477 65.0468 78.2647 66.8968M60.9647 116.327V115.437L60.9847 116.347C60.9847 116.347 60.9647 116.337 60.9647 116.327M45.5747 126.767L44.1847 128.857C43.8747 129.317 43.1247 128.667 43.4147 128.237C43.8507 127.589 45.3987 124.671 45.5747 126.767M43.0347 122.657C43.0557 122.053 44.1207 120.383 44.5847 121.567C44.5587 122.177 43.4927 123.855 43.0347 122.657M42.7147 120.367C42.3537 119.746 43.4357 118.328 43.8447 119.457C43.8547 119.978 43.2397 121.157 42.7147 120.367M34.4347 169.567C34.0077 170.092 32.9297 168.969 33.3847 168.517C33.8517 168.237 34.6737 169.099 34.4347 169.567M31.9347 167.207C31.0757 167.735 29.7147 164.539 31.2347 165.527C31.3827 165.909 32.3847 166.786 31.9347 167.207M125.745 163.187C123.845 155.897 113.205 139.247 107.465 138.147C108.065 137.577 108.545 136.997 108.855 136.397C108.835 136.397 108.815 136.407 108.805 136.417C89.7217 141.586 81.7237 104.806 83.4437 91.0878C84.0067 83.2838 86.0027 81.8468 90.2247 73.2468C96.7017 61.5038 98.8787 56.0418 109.255 55.2068C113.435 54.7978 117.999 57.1668 120.215 61.0968C115.75 33.8138 64.4517 35.2488 49.5557 52.5658C35.1427 72.0418 28.5147 105.014 39.0427 126.377C40.0547 128.237 40.1547 130.437 39.4847 132.447C38.1747 136.387 37.3947 143.047 45.1847 146.457C45.1847 146.457 25.0047 150.477 20.0847 171.347C17.8947 180.627 58.6347 187.334 88.7037 187.682C97.3547 187.782 112.405 177.427 120.875 173.497C124.775 171.687 126.825 167.347 125.745 163.187" fill="#672448"/><path id="Fill 8" fill-rule="evenodd" clip-rule="evenodd" d="M120.275 61.2668C110.966 63.9378 100.526 68.5458 90.224 73.2468C96.705 61.4878 98.877 56.0538 109.254 55.2068C113.452 54.7988 118.197 57.2258 120.275 61.2668" fill="#FF90A0"/><path id="Fill 10" fill-rule="evenodd" clip-rule="evenodd" d="M84.3443 84.947C84.2753 85.617 83.7643 87.737 83.4543 91.007C84.2043 85.807 86.0943 81.287 88.4743 76.587C86.0843 81.227 84.3553 84.907 84.3443 84.947" fill="#672448"/><path id="Fill 16" fill-rule="evenodd" clip-rule="evenodd" d="M43.8443 119.457C43.8243 119.892 43.4183 120.982 42.8443 120.517C42.1543 119.985 43.4083 118.241 43.8443 119.457" fill="#672448"/><path id="Fill 18" fill-rule="evenodd" clip-rule="evenodd" d="M44.5445 121.897C44.1755 122.272 43.9115 123.432 43.2445 122.987C42.3595 122.241 44.7465 120.064 44.5445 121.897" fill="#672448"/><path id="Fill 20" fill-rule="evenodd" clip-rule="evenodd" d="M45.5748 126.767L44.1848 128.857C43.8748 129.317 43.1248 128.667 43.4148 128.237C43.8508 127.589 45.3988 124.671 45.5748 126.767" fill="#672448"/><path id="Fill 22" fill-rule="evenodd" clip-rule="evenodd" d="M60.9849 116.347C60.9299 116.346 60.9819 115.459 60.9639 115.437L60.9849 116.347Z" fill="#672448"/><path id="Fill 24" fill-rule="evenodd" clip-rule="evenodd" d="M78.2642 66.8967C77.7862 67.3697 77.0052 69.2547 76.4052 67.9967C76.4022 67.2347 78.3472 65.0467 78.2642 66.8967" fill="#672448"/><path id="Fill 26" fill-rule="evenodd" clip-rule="evenodd" d="M83.9049 67.7468C83.6789 68.4948 81.3409 70.5608 81.7549 68.6468C82.1799 68.3488 83.6269 66.1988 83.9049 67.7468" fill="#672448"/><path id="Fill 28" fill-rule="evenodd" clip-rule="evenodd" d="M111.745 145.687C111.712 146.133 111.998 148.142 110.995 147.237C110.737 147.047 110.896 145.768 110.855 145.497C110.897 144.854 111.785 145.171 111.745 145.687" fill="#672448"/><path id="Fill 30" fill-rule="evenodd" clip-rule="evenodd" d="M114.205 149.187C113.695 149.187 113.385 148.267 113.975 148.267C114.475 148.267 114.795 149.187 114.205 149.187" fill="#672448"/><path id="Fill 32" fill-rule="evenodd" clip-rule="evenodd" d="M49.0094 147.972C71.9644 142.805 97.0624 163.794 107.371 146.426C102.38 157.459 88.6984 154.922 79.6274 151.048C69.8074 148.062 59.0014 147.325 49.0094 147.972" fill="#FF90A0"/><path id="Fill 40" fill-rule="evenodd" clip-rule="evenodd" d="M45.5748 126.767L44.1848 128.857C43.8748 129.317 43.1248 128.667 43.4148 128.237C43.8508 127.589 45.3988 124.671 45.5748 126.767" fill="#FF90A0"/><path id="Fill 42" fill-rule="evenodd" clip-rule="evenodd" d="M111.745 145.687C111.712 146.133 111.998 148.142 110.995 147.237C110.737 147.047 110.896 145.768 110.855 145.497C110.897 144.854 111.785 145.171 111.745 145.687" fill="#FF90A0"/><path id="Fill 44" fill-rule="evenodd" clip-rule="evenodd" d="M114.205 149.187C113.695 149.187 113.385 148.267 113.975 148.267C114.475 148.267 114.795 149.187 114.205 149.187" fill="#FF90A0"/><path id="Fill 46" fill-rule="evenodd" clip-rule="evenodd" d="M44.5445 121.897C44.1755 122.272 43.9115 123.432 43.2445 122.987C42.3595 122.241 44.7465 120.064 44.5445 121.897" fill="#FF90A0"/><path id="Fill 48" fill-rule="evenodd" clip-rule="evenodd" d="M43.8443 119.457C43.8243 119.892 43.4183 120.982 42.8443 120.517C42.1543 119.985 43.4083 118.241 43.8443 119.457" fill="#FF90A0"/><path id="Fill 50" fill-rule="evenodd" clip-rule="evenodd" d="M83.9049 67.7468C83.6789 68.4948 81.3409 70.5608 81.7549 68.6468C82.1799 68.3488 83.6269 66.1988 83.9049 67.7468" fill="#FF90A0"/><path id="Fill 52" fill-rule="evenodd" clip-rule="evenodd" d="M78.2642 66.8967C77.7862 67.3697 77.0052 69.2547 76.4052 67.9967C76.4022 67.2347 78.3472 65.0467 78.2642 66.8967" fill="#FF90A0"/></g></g></g><g id="Profile Expression Adult" transform="translate(162 254) scale(3.3285714285714287 3.3285714285714287)"><g id="Profile Expression Adult/Relaxed"><path id="Fill 35" fill-rule="evenodd" clip-rule="evenodd" d="M48.6309 2.76259C44.997 1.92337 39.9866 3.92116 38 7C40.7228 -3.65141 54.2961 0.397901 48.6309 2.76259" fill="#561D3E"/><path id="Fill 5" fill-rule="evenodd" clip-rule="evenodd" d="M47.7634 46C44.773 46 41.8392 44.5157 40.0813 41.7842C39.9311 41.5501 39.9948 41.237 40.2246 41.083C40.4524 40.93 40.7618 40.9939 40.913 41.2299C43.3852 45.0679 48.4618 46.1418 52.2293 43.6271C52.4581 43.4741 52.7665 43.538 52.9187 43.773C53.0689 44.0071 53.0052 44.3212 52.7754 44.4742C51.2284 45.5066 49.4865 46 47.7634 46" fill="#561D3E"/><g id="Group 11"><path id="Fill 1" fill-rule="evenodd" clip-rule="evenodd" d="M47.3393 15.8093C47.4253 18.0043 46.3213 19.8293 44.8763 19.8853C43.4303 19.9413 42.1893 18.2073 42.1043 16.0123C42.0193 13.8173 43.1223 11.9923 44.5683 11.9363C46.0143 11.8803 47.2543 13.6143 47.3393 15.8093" fill="#561D3E"/><path id="Fill 3" fill-rule="evenodd" clip-rule="evenodd" d="M37.5005 18.2468C37.4535 18.2468 37.4055 18.2408 37.3585 18.2258C37.0945 18.1478 36.9425 17.8698 37.0215 17.6048C38.3715 13.0368 43.1885 10.4218 47.7545 11.7708C48.0195 11.8488 48.1705 12.1268 48.0925 12.3918C48.0145 12.6568 47.7345 12.8098 47.4715 12.7298C43.4325 11.5348 39.1745 13.8508 37.9795 17.8888C37.9155 18.1058 37.7165 18.2468 37.5005 18.2468" fill="#561D3E"/></g></g></g></g></svg>