<svg viewBox="148.94361702127662 477.2605000000001 223.69787234042553 294.01649999999984" xmlns="http://www.w3.org/2000/svg" overflow="visible" xmlns:xlink="http://www.w3.org/1999/xlink" width="207.12765957446808px" height="272.23749999999984px"><rect id="Blush Background Color" fill="#ffffff" x="148.94361702127662" y="477.2605000000001" width="223.69787234042553" height="294.01649999999984"/><g id="Master/Character/Sitting on Floor" stroke="none" stroke-width="1" fill="none" fill-rule="evenodd"><g id="Lower Body/Sitting on Floor" transform="translate(71.000000, 391.000000) scale(1 1)"><g id="Lower Body/Sitting on Floor/Legs Crossed Red Pants" stroke="none" stroke-width="1" fill="none" fill-rule="evenodd"><g id="Group" transform="translate(89.000191, 284.999729)"><path d="M177.409809,69.8658712 C174.545809,67.5478712 162.134809,64.9558712 151.904809,55.8178712 C141.675809,46.6788712 140.448809,54.0448712 137.993809,54.1808712 C135.538809,54.3178712 125.190809,54.9428712 125.190809,54.9428712 C125.190809,54.9428712 126.169809,58.1708712 122.538809,63.4828712 C122.538809,63.4828712 122.475809,64.5698712 121.932809,65.7978712 C126.151809,65.3638712 143.312809,66.0468712 143.312809,66.0468712 C175.090809,76.4128712 180.273809,72.1838712 177.409809,69.8658712 M77.4538094,65.8048712 C75.2588094,65.1348712 74.7688094,61.2748712 74.7688094,61.2748712 L77.4578094,62.1748712 L77.4538094,62.1528712 L53.8118094,54.1778712 C52.2928094,54.8268712 50.4258094,56.0528712 48.0888094,58.1398712 C37.8598094,67.2788712 25.4488094,69.8698712 22.5838094,72.1878712 C19.7198094,74.5078712 24.9028094,78.7348712 56.6808094,68.3698712 C56.6808094,68.3698712 74.5998094,67.6558712 78.3248094,68.1488712 L78.2908094,67.9178712 C77.5658094,66.6678712 77.4538094,65.8048712 77.4538094,65.8048712" id="Socks" fill="#94B1EB"/><path d="M125.958209,53.5841712 C125.945209,53.6011712 125.937209,53.6151712 125.925209,53.6321712 C127.014209,51.5741712 127.625209,49.7281712 127.851209,48.1241712 C127.599209,50.3931712 126.732209,52.5551712 125.958209,53.5841712 L125.958209,53.5841712 Z M189.487209,5.07817124 C177.899209,-2.50582876 157.977209,7.06317124 142.829209,15.7201712 L142.829209,15.7191712 L143.555209,8.29417124 C143.701209,6.79417124 142.522209,5.49417124 141.014209,5.49417124 L57.7312094,5.49417124 C56.4632094,5.49417124 55.4862094,6.61417124 55.6602094,7.87017124 L56.3322094,12.7421712 L56.3392094,12.9271712 C41.2992094,4.40017124 21.8842094,-4.69182876 10.5062094,2.75517124 C-7.21079057,14.3531712 0.520209428,31.1051712 11.4732094,37.7091712 C22.4262094,44.3131712 96.8422094,68.1511712 106.345209,72.5011712 C115.849209,76.8491712 118.909209,68.7961712 118.909209,68.7961712 C122.326209,67.4571712 122.539209,63.4831712 122.539209,63.4831712 C126.169209,58.1701712 125.191209,54.9431712 125.191209,54.9431712 C125.329209,54.7151712 125.438209,54.4981712 125.565209,54.2741712 C125.230209,55.2841712 126.861209,54.9431712 126.861209,54.9431712 L134.917209,54.3601712 C138.203209,54.1651712 139.189209,53.6001712 139.189209,53.6001712 L141.811209,51.6171712 C145.646209,49.9631712 150.774209,54.7071712 150.774209,54.7071712 C168.203209,48.5901712 183.932209,42.7981712 188.520209,40.0311712 C199.474209,33.4271712 207.205209,16.6751712 189.487209,5.07817124 L189.487209,5.07817124 Z M74.7692094,61.2741712 C74.7692094,61.2741712 75.2582094,65.1351712 77.4542094,65.8061712 C77.4542094,65.8061712 77.7772094,68.3881712 81.0842094,71.1181712 C81.0842094,71.1181712 84.1452094,79.1721712 93.6482094,74.8231712 C95.1772094,74.1231712 98.3862094,72.9191712 102.740209,71.3631712 L79.6262094,62.9001712 L74.7692094,61.2741712 Z" id="Pants" fill="#EC7068"/><path d="M125.190609,55.4435712 C125.102609,55.4435712 125.013609,55.4205712 124.932609,55.3715712 C124.696609,55.2285712 124.620609,54.9215712 124.762609,54.6855712 C127.440609,50.2505712 128.172609,46.2505712 126.771609,43.7115712 C126.010609,42.3325712 124.686609,41.5555712 123.044609,41.5245712 C120.084609,41.4675712 84.2246094,27.9105712 75.0686094,24.1575712 C74.8136094,24.0525712 74.6906094,23.7605712 74.7956094,23.5055712 C74.9006094,23.2495712 75.1936094,23.1295712 75.4476094,23.2325712 C85.6556094,27.4165712 120.397609,40.4735712 123.063609,40.5245712 C125.048609,40.5625712 126.719609,41.5475712 127.647609,43.2285712 C129.225609,46.0885712 128.486609,50.4525712 125.619609,55.2015712 C125.524609,55.3575712 125.359609,55.4435712 125.190609,55.4435712" id="Fill-8" fill="#000"/><path d="M111.565609,74.2911712 C109.897609,74.2911712 108.082609,73.8451712 106.137609,72.9551712 C102.532609,71.3051712 89.3436094,66.7701712 74.0716094,61.5181712 C66.3326094,58.8561712 58.3296094,56.1041712 50.4666094,53.3511712 C50.2066094,53.2601712 50.0686094,52.9751712 50.1606094,52.7141712 C50.2516094,52.4541712 50.5376094,52.3161712 50.7966094,52.4081712 C58.6566094,55.1601712 66.6586094,57.9121712 74.3976094,60.5721712 C89.6936094,65.8331712 102.903609,70.3751712 106.553609,72.0461712 C109.539609,73.4121712 112.156609,73.6541712 114.335609,72.7661712 C117.281609,71.5631712 118.430609,68.6461712 118.441609,68.6171712 C118.541609,68.3591712 118.830609,68.2291712 119.087609,68.3291712 C119.345609,68.4271712 119.474609,68.7151712 119.376609,68.9731712 C119.325609,69.1091712 118.075609,72.3121712 114.725609,73.6861712 C113.742609,74.0891712 112.687609,74.2911712 111.565609,74.2911712" id="Fill-12" fill="#000"/><path d="M124.898609,60.3878712 C124.835609,60.3878712 124.770609,60.3758712 124.708609,60.3498712 C124.452609,60.2448712 124.331609,59.9528712 124.436609,59.6978712 C125.540609,57.0148712 125.020609,54.6948712 122.892609,52.7988712 C122.686609,52.6158712 122.668609,52.2988712 122.851609,52.0928712 C123.036609,51.8878712 123.352609,51.8688712 123.557609,52.0518712 C126.646609,54.8028712 126.242609,57.9348712 125.360609,60.0778712 C125.281609,60.2708712 125.094609,60.3878712 124.898609,60.3878712" id="Fill-14" fill="#000"/><path d="M117.256009,69.1442712 C116.153009,69.1442712 115.347009,68.8422712 115.330009,68.8352712 C115.073009,68.7362712 114.945009,68.4482712 115.044009,68.1902712 C115.144009,67.9332712 115.433009,67.8052712 115.690009,67.9022712 C115.810009,67.9482712 118.654009,68.9922712 120.628009,66.5172712 C120.800009,66.3022712 121.114009,66.2652712 121.330009,66.4372712 C121.547009,66.6102712 121.582009,66.9242712 121.410009,67.1402712 C120.118009,68.7612712 118.498009,69.1442712 117.256009,69.1442712" id="Fill-16" fill="#000"/><path d="M121.669109,66.3263712 C121.615109,66.3263712 121.561109,66.3173712 121.507109,66.2993712 C121.246109,66.2103712 121.107109,65.9263712 121.196109,65.6643712 C122.615109,61.5143712 120.658109,59.6443712 120.574109,59.5673712 C120.372109,59.3803712 120.357109,59.0653712 120.543109,58.8623712 C120.727109,58.6583712 121.040109,58.6403712 121.245109,58.8253712 C121.349109,58.9193712 123.786109,61.1793712 122.142109,65.9883712 C122.071109,66.1963712 121.877109,66.3263712 121.669109,66.3263712" id="Fill-18" fill="#000"/><path d="M147.078309,57.4464712 C142.254309,57.4464712 137.964309,54.7564712 137.724309,54.6024712 C137.492309,54.4544712 137.423309,54.1454712 137.572309,53.9124712 C137.720309,53.6794712 138.030309,53.6124712 138.262309,53.7594712 C138.336309,53.8064712 145.764309,58.4564712 151.673309,55.3744712 C151.920309,55.2454712 152.220309,55.3424712 152.348309,55.5864712 C152.475309,55.8314712 152.381309,56.1334712 152.136309,56.2614712 C150.483309,57.1234712 148.748309,57.4464712 147.078309,57.4464712" id="Fill-20" fill="#000"/><path d="M167.620809,72.7633712 C167.369809,72.7633712 167.152809,72.5743712 167.123809,72.3183712 C166.642809,67.9673712 170.252809,66.2593712 170.288809,66.2423712 C170.538809,66.1283712 170.834809,66.2373712 170.950809,66.4873712 C171.066809,66.7373712 170.956809,67.0343712 170.707809,67.1503712 C170.584809,67.2073712 167.717809,68.5893712 168.118809,72.2083712 C168.148809,72.4833712 167.950809,72.7303712 167.676809,72.7603712 C167.657809,72.7623712 167.638809,72.7633712 167.620809,72.7633712" id="Fill-22" fill="#000"/><path d="M103.133009,34.8409712 C102.930009,34.8409712 102.739009,34.7169712 102.665009,34.5159712 C102.568009,34.2569712 102.699009,33.9689712 102.958009,33.8729712 C111.643009,30.6299712 120.319009,27.2869712 124.546009,25.5549712 C126.702009,24.6709712 130.194009,22.5919712 134.615009,19.9599712 C139.334009,17.1499712 145.206009,13.6539712 151.336009,10.5309712 C151.582009,10.4039712 151.883009,10.5039712 152.008009,10.7499712 C152.134009,10.9959712 152.036009,11.2969712 151.790009,11.4219712 C145.689009,14.5299712 139.833009,18.0169712 135.127009,20.8189712 C130.670009,23.4719712 127.150009,25.5689712 124.925009,26.4799712 C120.689009,28.2159712 112.002009,31.5639712 103.308009,34.8089712 C103.250009,34.8309712 103.191009,34.8409712 103.133009,34.8409712" id="Fill-24" fill="#000"/><path d="M93.6486094,75.3229712 C93.4586094,75.3229712 93.2776094,75.2149712 93.1936094,75.0309712 C93.0786094,74.7799712 93.1896094,74.4829712 93.4406094,74.3679712 C94.8706094,73.7139712 97.8576094,72.5769712 102.572609,70.8929712 C102.830609,70.7989712 103.118609,70.9359712 103.211609,71.1959712 C103.304609,71.4559712 103.168609,71.7419712 102.908609,71.8349712 C98.2216094,73.5089712 95.2606094,74.6349712 93.8566094,75.2779712 C93.7886094,75.3079712 93.7176094,75.3229712 93.6486094,75.3229712" id="Fill-26" fill="#000"/><path d="M82.7355094,71.4781712 C82.0095094,71.4781712 81.1525094,71.3431712 80.3005094,70.9001712 C78.6995094,70.0671712 77.5785094,68.3931712 76.9685094,65.9251712 C76.9025094,65.6571712 77.0665094,65.3861712 77.3345094,65.3201712 C77.6045094,65.2561712 77.8735094,65.4181712 77.9395094,65.6861712 C78.4755094,67.8561712 79.4225094,69.3111712 80.7525094,70.0081712 C82.4655094,70.9061712 84.2865094,70.2311712 84.3045094,70.2251712 C84.5605094,70.1261712 84.8505094,70.2561712 84.9495094,70.5131712 C85.0485094,70.7701712 84.9215094,71.0591712 84.6645094,71.1581712 C84.6105094,71.1791712 83.8175094,71.4781712 82.7355094,71.4781712" id="Fill-28" fill="#000"/><path d="M53.1100094,59.8375712 C51.4160094,59.8375712 49.6160094,59.5015712 47.8570094,58.5835712 C47.6120094,58.4555712 47.5180094,58.1535712 47.6450094,57.9085712 C47.7740094,57.6645712 48.0740094,57.5695712 48.3200094,57.6965712 C54.2240094,60.7785712 60.9530094,56.5355712 61.0200094,56.4915712 C61.2510094,56.3425712 61.5610094,56.4085712 61.7110094,56.6415712 C61.8600094,56.8735712 61.7940094,57.1825712 61.5620094,57.3325712 C61.3480094,57.4705712 57.6050094,59.8375712 53.1100094,59.8375712" id="Fill-30" fill="#000"/><path d="M32.3732094,75.0856712 C32.3552094,75.0856712 32.3362094,75.0846712 32.3172094,75.0826712 C32.0432094,75.0526712 31.8452094,74.8046712 31.8752094,74.5306712 C32.2762094,70.9126712 29.4082094,69.5296712 29.2862094,69.4726712 C29.0372094,69.3566712 28.9272094,69.0596712 29.0432094,68.8096712 C29.1582094,68.5596712 29.4562094,68.4516712 29.7052094,68.5646712 C29.7412094,68.5816712 33.3512094,70.2906712 32.8702094,74.6406712 C32.8412094,74.8966712 32.6242094,75.0856712 32.3732094,75.0856712" id="Fill-32" fill="#000"/></g></g></g><g id="Upper Body" transform="translate(8.000000, 378.000000) scale(1 1)"><g id="Upper Body/Reading" stroke="none" stroke-width="1" fill="none" fill-rule="evenodd"><path d="M235.909,184.1141 C235.909,184.1141 184.446,188.0601 168.5,254.2611 C168.5,254.2611 168.5,277.8481 203.533,290.9401 C203.533,290.9401 199.61,306.1481 203.263,306.6571 C207.389,307.2321 299.016,306.6571 299.016,306.6571 C299.016,306.6571 303.316,306.8211 302.728,299.1671 C302.005,289.7691 299.453,262.1121 297.278,247.9181 L301.948,249.1531 C301.948,249.1531 303.963,274.6251 307.748,277.3691 C311.533,280.1141 337.386,270.6911 338.835,248.9461 C340.285,227.2011 298.845,183.7111 263.453,184.6781 L263.49,184.1051 C263.731,180.4481 260.83,177.3491 257.165,177.3491 L242.249,177.3491 C238.747,177.3491 235.909,180.1871 235.909,183.6881 L235.909,184.1141 Z" id="Sweater" fill="#F0BE91"/><polygon id="Fill-4" fill="#F1EFEF" points="290.6423 233.0508 290.6423 230.2538 272.2393 246.6528 272.2393 246.6898 248.2293 231.1898 248.2293 233.7438 246.2983 232.5188 246.2983 280.4788 272.3113 290.9408 272.3113 288.5118 272.3863 288.4618 272.3863 288.6158 292.1683 277.0678 292.1683 231.1608"/><path d="M236.0632,297.8951 C235.9992,297.8951 235.9532,297.8881 235.9312,297.8841 C235.8632,297.8711 235.7972,297.8441 235.7402,297.8041 C233.6172,296.3271 232.5752,290.8181 232.5552,280.9631 C232.5422,274.6571 232.9862,268.5941 233.0922,267.2281 C225.1692,261.7311 195.1012,254.9871 194.7952,254.9181 C194.5262,254.8581 194.3562,254.5911 194.4162,254.3221 C194.4752,254.0541 194.7422,253.8801 195.0122,253.9431 C196.2822,254.2261 226.1832,260.9341 233.9092,266.5821 C234.0492,266.6851 234.1262,266.8541 234.1122,267.0281 C233.4892,274.3961 232.6672,293.9071 236.1672,296.8721 C236.4522,296.6841 237.8612,295.3681 237.3772,286.6091 C237.3622,286.3331 237.5732,286.0981 237.8492,286.0821 C238.1402,286.0631 238.3612,286.2791 238.3762,286.5541 C238.7142,292.6921 238.2172,296.3901 236.8972,297.5451 C236.5552,297.8441 236.2402,297.8951 236.0632,297.8951" id="Fill-6" fill="#000"/><path d="M236.0252,297.8931 C236.0182,297.8931 236.0102,297.8931 236.0032,297.8931 C235.8452,297.8861 220.0852,297.1251 203.9322,291.4251 C182.4542,283.8471 170.0302,271.0161 168.0042,254.3211 C167.9702,254.0471 168.1662,253.7981 168.4392,253.7651 C168.7052,253.7321 168.9622,253.9261 168.9962,254.2011 C173.7852,293.6541 235.4252,296.8661 236.0472,296.8931 C236.3232,296.9061 236.5372,297.1401 236.524762,297.4151 C236.5122,297.6841 236.2922,297.8931 236.0252,297.8931" id="Fill-8" fill="#000"/><path d="M206.6775,257.8204 C206.6525,257.8204 206.6275,257.8184 206.6025,257.8154 C206.3285,257.7744 206.1415,257.5194 206.1825,257.2464 C207.9295,245.6064 217.1365,234.4814 217.2295,234.3704 C217.4065,234.1584 217.7225,234.1314 217.9335,234.3074 C218.1455,234.4844 218.1735,234.7994 217.9965,235.0114 C217.9065,235.1204 208.8765,246.0364 207.1705,257.3944 C207.1335,257.6424 206.9205,257.8204 206.6775,257.8204" id="Fill-10" fill="#000"/><path d="M300.7381,282.754 C300.4791,282.768 300.2371,282.529 300.2381,282.252 C300.3481,256.608 293.6941,227.185 293.6461,226.891 C293.6031,226.618 293.7891,226.362 294.0611,226.318 C294.3391,226.271 294.5901,226.461 294.6341,226.733 C294.6811,227.028 301.3481,256.531 301.2381,282.256 C301.2371,282.531 301.0131,282.754 300.7381,282.754" id="Fill-12" fill="#000"/><path d="M306.7683,279.0684 C306.5863,279.0684 306.4083,278.9804 306.2813,278.8134 C304.2073,276.0834 303.3543,269.2454 303.3193,268.9564 C303.2863,268.6824 303.4803,268.4324 303.7543,268.3994 C304.0223,268.3574 304.2783,268.5604 304.3113,268.8354 C304.3193,268.8984 305.0413,274.6854 306.6543,277.5554 C307.4583,273.5224 308.6293,253.2054 306.4013,248.1194 C305.7743,246.6884 305.4093,246.6374 305.4023,246.6374 C305.0963,246.6804 304.5413,248.0934 304.3103,249.7854 C304.2733,250.0584 304.0133,250.2554 303.7473,250.2134 C303.4743,250.1754 303.2833,249.9234 303.3203,249.6504 C303.4753,248.5064 303.9763,245.8274 305.2633,245.6474 C306.2383,245.5154 306.8993,246.7644 307.3173,247.7184 C308.8273,251.1644 308.7473,261.0004 308.6413,265.0694 C308.6073,266.4194 308.2673,278.2794 307.0633,278.9864 C306.9693,279.0424 306.8693,279.0684 306.7683,279.0684" id="Fill-14" fill="#000"/><path d="M305.365,246.5054 C305.262,246.5054 305.159,246.4744 305.07,246.4094 C304.847,246.2464 304.799,245.9334 304.962,245.7104 C305.141,245.4644 309.477,239.6504 319.726,235.7554 C319.982,235.6574 320.273,235.7864 320.372,236.0454 C320.469,236.3034 320.34,236.5914 320.082,236.6904 C310.107,240.4814 305.811,246.2424 305.768,246.3004 C305.671,246.4344 305.518,246.5054 305.365,246.5054" id="Fill-16" fill="#000"/><polygon id="Book" fill="#E2A2B5" points="272.3123 247.046 272.3123 247.053 272.3113 247.046 242.9963 234.692 242.9963 280.597 272.3113 292.146 272.3123 292.145 272.3123 292.147 293.0953 280.598 293.0953 234.692"/><path d="M307.2263,250.7393 C307.2263,250.7393 300.9123,247.9693 293.1713,247.9193 L293.0743,251.9683 C294.5633,252.4473 295.7533,252.8203 295.8293,252.9723 C295.8293,252.9723 276.9013,254.5103 276.9313,257.3203 C276.9613,260.1303 292.5303,259.2353 292.5303,259.2353 C292.5303,259.2353 273.3883,261.0723 273.8013,263.2913 C274.1163,264.9753 280.8623,265.8583 287.2903,265.3853 C282.7573,266.1723 277.1213,267.4183 276.4873,268.8363 C275.4103,271.2473 287.2563,271.2683 294.1403,268.5713 C294.1403,268.5713 280.9003,273.6703 282.2853,275.9513 C283.6703,278.2313 294.3373,273.3693 296.2353,272.5753 L307.7473,266.9863 C308.2623,261.7373 307.2263,250.7393 307.2263,250.7393 L307.2263,250.7393 Z M256.9683,275.6033 C262.9523,273.2013 268.6223,269.4423 268.1633,267.7923 C267.5603,265.6173 249.5603,272.3823 249.5603,272.3823 C249.5603,272.3823 263.9363,266.3423 262.7283,263.8043 C261.5203,261.2683 245.4533,268.2743 245.4533,268.2743 C245.4533,267.6713 255.2313,258.3443 247.5333,261.0153 C238.4463,264.1673 233.6143,272.3823 233.6143,272.3823 L233.6143,286.7583 L252.0973,285.9933 C254.1513,285.8723 265.8693,285.5503 266.1103,282.8923 C266.3523,280.2343 252.2173,281.4763 252.2173,281.4763 C259.5863,280.8723 270.2173,275.6433 268.1903,273.9523 C266.9973,272.9583 261.3863,274.3163 256.9683,275.6033 L256.9683,275.6033 Z M243.3523,178.1543 L257.5263,178.1543 L257.5263,171.1543 L243.3523,171.1543 L243.3523,178.1543 Z" id="Skin" fill="#c3986a"/><path d="M243.1913,234.2301 L272.5053,246.5841 C272.6913,246.6631 272.8113,246.8441 272.8113,247.0451 L272.8113,292.1461 C272.8113,292.4221 272.5873,292.6461 272.3113,292.6461 C272.0353,292.6461 271.8113,292.4221 271.8113,292.1461 L271.8113,247.3771 L242.8023,235.1521 C242.5483,235.0441 242.4283,234.7511 242.5363,234.4971 C242.6443,234.2421 242.9383,234.1251 243.1913,234.2301 Z M268.5104,273.5688 C268.8994,273.8928 269.0334,274.3588 268.8784,274.8458 C268.3154,276.6258 263.5114,279.1488 258.5054,280.6818 C261.7624,280.6628 265.2034,280.9118 266.2264,281.9368 C266.5094,282.2218 266.6414,282.5678 266.6084,282.9378 C266.4254,284.9488 262.3034,286.0008 252.8254,286.4568 L252.1264,286.4918 C252.1174,286.4928 252.1074,286.4928 252.0974,286.4928 C251.8334,286.4928 251.6144,286.2878 251.5984,286.0218 C251.5814,285.7458 251.7924,285.5098 252.0684,285.4938 L252.7774,285.4578 C264.1974,284.9088 265.5574,283.4498 265.6124,282.8468 C265.6154,282.8118 265.6204,282.7468 265.5184,282.6428 C264.3084,281.4298 256.9204,281.5768 252.4254,281.9598 C252.3694,281.9648 252.3134,281.9698 252.2584,281.9748 C251.9894,281.9918 251.7434,281.7938 251.7194,281.5188 C251.6964,281.2438 251.8994,281.0018 252.1734,280.9778 C252.2144,280.9748 252.2674,280.9698 252.3284,280.9648 C258.7894,280.3828 267.3634,276.3198 267.9254,274.5438 C267.9604,274.4338 267.9444,274.3988 267.8694,274.3368 C267.6584,274.1598 267.6294,273.8448 267.8064,273.6328 C267.9844,273.4198 268.2994,273.3928 268.5104,273.5688 Z M263.1799,263.5902 C263.2879,263.8172 263.3789,264.1912 263.1919,264.6782 C262.7009,265.9672 260.2649,267.6082 257.5889,269.0842 C262.1749,267.6342 267.0899,266.3502 268.2459,267.0812 C268.4909,267.2372 268.6389,267.4742 268.6619,267.7502 C268.9099,270.6812 258.2149,276.5412 251.4679,277.8602 C251.4349,277.8662 251.4029,277.8692 251.3709,277.8692 C251.1369,277.8692 250.9279,277.7032 250.8809,277.4652 C250.8279,277.1942 251.0049,276.9312 251.2759,276.8782 C258.6119,275.4452 267.6129,269.8162 267.6679,267.8992 C266.4889,267.2812 257.5179,269.9592 249.7339,272.8502 C249.4809,272.9462 249.1949,272.8182 249.0959,272.5662 C248.9949,272.3132 249.1159,272.0262 249.3669,271.9212 C254.1499,269.9102 261.5309,266.2282 262.2589,264.3222 C262.3309,264.1322 262.2919,264.0502 262.2769,264.0192 C262.1579,263.7702 262.2649,263.4722 262.5139,263.3532 C262.7619,263.2342 263.0609,263.3402 263.1799,263.5902 Z M308.0255,266.7681 C308.1455,267.0161 308.0415,267.3151 307.7935,267.4351 L295.6115,273.3111 C289.7445,275.8411 285.9405,277.0611 283.7595,277.0611 C282.7015,277.0611 282.0275,276.7741 281.6845,276.2101 C281.5415,275.9741 281.6155,275.6671 281.8525,275.5231 C282.0855,275.3801 282.3945,275.4541 282.5395,275.6911 C282.8525,276.2081 284.7175,276.9191 295.2145,272.3931 L295.8675,272.1131 L307.3565,266.5361 C307.6065,266.4161 307.9045,266.5191 308.0255,266.7681 Z M250.8081,260.5299 C251.5821,261.6739 249.6851,264.0199 247.1251,266.9679 C246.6231,267.5469 246.0551,268.1989 245.9371,268.4019 C245.8811,268.6159 245.6851,268.7749 245.4531,268.7749 C245.1761,268.7749 244.9531,268.5509 244.9531,268.2749 C244.9531,267.9669 245.1491,267.7189 246.3701,266.3129 C247.3461,265.1889 250.3171,261.7669 249.9791,261.0899 C249.9781,261.0899 249.6431,260.8139 247.6971,261.4869 C238.8981,264.5399 234.0921,272.5549 234.0451,272.6359 C233.9521,272.7939 233.7851,272.8819 233.6131,272.8819 C233.5271,272.8819 233.4401,272.8599 233.3601,272.8129 C233.1231,272.6729 233.0431,272.3659 233.1831,272.1289 C233.3841,271.7869 238.2141,263.7189 247.3691,260.5429 C249.3011,259.8739 250.3601,259.8689 250.8081,260.5299 Z M294.6064,268.3885 C294.7064,268.6465 294.5794,268.9365 294.3234,269.0365 C290.8734,270.3885 285.9404,271.1275 282.0574,271.1275 C279.2744,271.1275 277.0314,270.7485 276.2614,269.9415 C275.9084,269.5715 275.8244,269.0945 276.0314,268.6315 C276.1434,268.3805 276.4394,268.2655 276.6914,268.3795 C276.9434,268.4925 277.0564,268.7875 276.9434,269.0405 C276.9044,269.1285 276.9054,269.1675 276.9854,269.2515 C278.2814,270.6085 287.9064,270.4775 293.9574,268.1065 C294.2174,268.0055 294.5054,268.1315 294.6064,268.3885 Z M274.2923,263.1992 C274.3033,263.2542 274.3633,263.4062 274.6903,263.6162 C277.0813,265.1492 286.5553,265.6312 292.9733,264.0252 C293.2363,263.9552 293.5113,264.1212 293.5803,264.3892 C293.6463,264.6572 293.4843,264.9282 293.2153,264.9952 C290.4663,265.6832 286.9963,266.0142 283.7293,266.0142 C279.5693,266.0142 275.7403,265.4772 274.1503,264.4572 C273.6673,264.1482 273.3853,263.7862 273.3103,263.3832 C273.2593,263.1112 273.4383,262.8502 273.7093,262.7992 C273.9753,262.7512 274.2423,262.9272 274.2923,263.1992 Z M276.9312,256.8205 C277.2052,256.8205 277.4282,257.0405 277.4312,257.3155 C277.4312,257.3495 277.4322,257.4395 277.5812,257.5785 C279.0732,258.9705 287.3192,259.0325 292.5012,258.7355 C292.8142,258.7265 293.0132,258.9315 293.0292,259.2065 C293.0442,259.4825 292.8342,259.7185 292.5582,259.7335 C292.0242,259.7645 289.8522,259.8795 287.2722,259.8795 C283.2692,259.8795 278.2842,259.6035 276.8982,258.3095 C276.5172,257.9535 276.4342,257.5775 276.43117,257.3255 C276.4282,257.0495 276.6502,256.8235 276.9252,256.8205 L276.9312,256.8205 Z M256.5261,178.1544 L242.3521,178.1544" id="Combined-Shape" fill="#000"/><path d="M267.0886,206.546 C266.5606,206.546 266.1316,206.975 266.1316,207.503 C266.1316,208.031 266.5606,208.46 267.0886,208.46 C267.6166,208.46 268.0456,208.031 268.0456,207.503 C268.0456,206.975 267.6166,206.546 267.0886,206.546 M272.8446,225.855 C272.8446,225.326 272.4156,224.898 271.8876,224.898 C271.3586,224.898 270.9306,225.326 270.9306,225.855 C270.9306,226.384 271.3586,226.813 271.8876,226.813 C272.4156,226.813 272.8446,226.384 272.8446,225.855 M266.1316,294.382 C265.6026,294.382 265.1736,294.811 265.1736,295.34 C265.1736,295.868 265.6026,296.297 266.1316,296.297 C266.6596,296.297 267.0886,295.868 267.0886,295.34 C267.0886,294.811 266.6596,294.382 266.1316,294.382 M272.3116,240.157 C271.7826,240.157 271.3546,240.586 271.3546,241.114 C271.3546,241.643 271.7826,242.071 272.3116,242.071 C272.8406,242.071 273.2696,241.643 273.2696,241.114 C273.2696,240.586 272.8406,240.157 272.3116,240.157 M274.7596,302.948 C274.2306,302.948 273.8016,303.377 273.8016,303.905 C273.8016,304.435 274.2306,304.863 274.7596,304.863 C275.2876,304.863 275.7166,304.435 275.7166,303.905 C275.7166,303.377 275.2876,302.948 274.7596,302.948 M253.6866,296.439 C253.1566,296.439 252.7286,296.867 252.7286,297.396 C252.7286,297.925 253.1566,298.354 253.6866,298.354 C254.2146,298.354 254.6436,297.925 254.6436,297.396 C254.6436,296.867 254.2146,296.439 253.6866,296.439 M249.4396,199.999 C248.9106,199.999 248.4826,200.427 248.4826,200.956 C248.4826,201.484 248.9106,201.913 249.4396,201.913 C249.9676,201.913 250.3966,201.484 250.3966,200.956 C250.3966,200.427 249.9676,199.999 249.4396,199.999 M246.2986,289.026 C245.7696,289.026 245.3416,289.454 245.3416,289.984 C245.3416,290.512 245.7696,290.941 246.2986,290.941 C246.8266,290.941 247.2556,290.512 247.2556,289.984 C247.2556,289.454 246.8266,289.026 246.2986,289.026 M261.2276,188.887 C260.6976,188.887 260.2706,189.316 260.2706,189.845 C260.2706,190.373 260.6976,190.802 261.2276,190.802 C261.7556,190.802 262.1846,190.373 262.1846,189.845 C262.1846,189.316 261.7556,188.887 261.2276,188.887 M258.8636,223.941 C258.3346,223.941 257.9056,224.369 257.9056,224.898 C257.9056,225.427 258.3346,225.855 258.8636,225.855 C259.3926,225.855 259.8206,225.427 259.8206,224.898 C259.8206,224.369 259.3926,223.941 258.8636,223.941 M249.4396,182.521 C248.9106,182.521 248.4826,182.948 248.4826,183.478 C248.4826,184.006 248.9106,184.435 249.4396,184.435 C249.9676,184.435 250.3966,184.006 250.3966,183.478 C250.3966,182.948 249.9676,182.521 249.4396,182.521 M282.2846,223.941 C281.7566,223.941 281.3276,224.369 281.3276,224.898 C281.3276,225.427 281.7566,225.855 282.2846,225.855 C282.8146,225.855 283.2426,225.427 283.2426,224.898 C283.2426,224.369 282.8146,223.941 282.2846,223.941 M310.8596,230.254 C310.3316,230.254 309.9026,230.683 309.9026,231.211 C309.9026,231.74 310.3316,232.168 310.8596,232.168 C311.3886,232.168 311.8176,231.74 311.8176,231.211 C311.8176,230.683 311.3886,230.254 310.8596,230.254 M314.5656,246.962 C314.0366,246.962 313.6086,247.391 313.6086,247.919 C313.6086,248.447 314.0366,248.876 314.5656,248.876 C315.0936,248.876 315.5226,248.447 315.5226,247.919 C315.5226,247.391 315.0936,246.962 314.5656,246.962 M242.9956,218.388 C242.4676,218.388 242.0386,218.817 242.0386,219.345 C242.0386,219.874 242.4676,220.303 242.9956,220.303 C243.5256,220.303 243.9536,219.874 243.9536,219.345 C243.9536,218.817 243.5256,218.388 242.9956,218.388 M318.9466,269.663 C318.4186,269.663 317.9896,270.092 317.9896,270.62 C317.9896,271.149 318.4186,271.577 318.9466,271.577 C319.4756,271.577 319.9036,271.149 319.9036,270.62 C319.9036,270.092 319.4756,269.663 318.9466,269.663 M324.9126,256.363 C324.3846,256.363 323.9556,256.792 323.9556,257.32 C323.9556,257.849 324.3846,258.277 324.9126,258.277 C325.4426,258.277 325.8706,257.849 325.8706,257.32 C325.8706,256.792 325.4426,256.363 324.9126,256.363 M335.7756,246.962 C335.2456,246.962 334.8176,247.391 334.8176,247.919 C334.8176,248.447 335.2456,248.876 335.7756,248.876 C336.3036,248.876 336.7326,248.447 336.7326,247.919 C336.7326,247.391 336.3036,246.962 335.7756,246.962 M326.8276,233.734 C326.2996,233.734 325.8706,234.163 325.8706,234.692 C325.8706,235.22 326.2996,235.649 326.8276,235.649 C327.3566,235.649 327.7846,235.22 327.7846,234.692 C327.7846,234.163 327.3566,233.734 326.8276,233.734 M287.1936,193.146 C286.6656,193.146 286.2366,193.574 286.2366,194.104 C286.2366,194.632 286.6656,195.061 287.1936,195.061 C287.7226,195.061 288.1506,194.632 288.1506,194.104 C288.1506,193.574 287.7226,193.146 287.1936,193.146 M285.2786,291.19 C284.7506,291.19 284.3216,291.618 284.3216,292.147 C284.3216,292.675 284.7506,293.104 285.2786,293.104 C285.8086,293.104 286.2366,292.675 286.2366,292.147 C286.2366,291.618 285.8086,291.19 285.2786,291.19 M307.7476,215.563 C307.2196,215.563 306.7906,215.991 306.7906,216.52 C306.7906,217.049 307.2196,217.478 307.7476,217.478 C308.2766,217.478 308.7046,217.049 308.7046,216.52 C308.7046,215.991 308.2766,215.563 307.7476,215.563 M290.7716,205.589 C290.2426,205.589 289.8146,206.017 289.8146,206.546 C289.8146,207.074 290.2426,207.503 290.7716,207.503 C291.3006,207.503 291.7296,207.074 291.7296,206.546 C291.7296,206.017 291.3006,205.589 290.7716,205.589 M293.1686,302.948 C292.6406,302.948 292.2116,303.377 292.2116,303.905 C292.2116,304.435 292.6406,304.863 293.1686,304.863 C293.6966,304.863 294.1256,304.435 294.1256,303.905 C294.1256,303.377 293.6966,302.948 293.1686,302.948 M301.3596,237.231 C300.8306,237.231 300.4016,237.659 300.4016,238.188 C300.4016,238.716 300.8306,239.145 301.3596,239.145 C301.8886,239.145 302.3166,238.716 302.3166,238.188 C302.3166,237.659 301.8886,237.231 301.3596,237.231 M295.0166,285.036 C294.4876,285.036 294.0596,285.464 294.0596,285.993 C294.0596,286.522 294.4876,286.95 295.0166,286.95 C295.5456,286.95 295.9736,286.522 295.9736,285.993 C295.9736,285.464 295.5456,285.036 295.0166,285.036 M234.5706,231.211 C234.0426,231.211 233.6136,231.64 233.6136,232.168 C233.6136,232.697 234.0426,233.126 234.5706,233.126 C235.0996,233.126 235.5276,232.697 235.5276,232.168 C235.5276,231.64 235.0996,231.211 234.5706,231.211 M194.9036,275.597 C194.3756,275.597 193.9466,276.026 193.9466,276.555 C193.9466,277.083 194.3756,277.512 194.9036,277.512 C195.4336,277.512 195.8616,277.083 195.8616,276.555 C195.8616,276.026 195.4336,275.597 194.9036,275.597 M194.9036,244.091 C194.3756,244.091 193.9466,244.52 193.9466,245.049 C193.9466,245.577 194.3756,246.006 194.9036,246.006 C195.4336,246.006 195.8616,245.577 195.8616,245.049 C195.8616,244.52 195.4336,244.091 194.9036,244.091 M197.7756,227.77 C197.2476,227.77 196.8186,228.198 196.8186,228.727 C196.8186,229.255 197.2476,229.684 197.7756,229.684 C198.3046,229.684 198.7336,229.255 198.7336,228.727 C198.7336,228.198 198.3046,227.77 197.7756,227.77 M195.8616,208.46 C195.3326,208.46 194.9036,208.889 194.9036,209.417 C194.9036,209.946 195.3326,210.375 195.8616,210.375 C196.3906,210.375 196.8186,209.946 196.8186,209.417 C196.8186,208.889 196.3906,208.46 195.8616,208.46 M187.5006,238.188 C186.9716,238.188 186.5436,238.616 186.5436,239.145 C186.5436,239.673 186.9716,240.102 187.5006,240.102 C188.0286,240.102 188.4576,239.673 188.4576,239.145 C188.4576,238.616 188.0286,238.188 187.5006,238.188 M237.9776,303.905 C237.4486,303.905 237.0206,304.334 237.0206,304.863 C237.0206,305.392 237.4486,305.82 237.9776,305.82 C238.5056,305.82 238.9346,305.392 238.9346,304.863 C238.9346,304.334 238.5056,303.905 237.9776,303.905 M185.5856,226.813 C185.0576,226.813 184.6286,227.241 184.6286,227.77 C184.6286,228.298 185.0576,228.727 185.5856,228.727 C186.1146,228.727 186.5436,228.298 186.5436,227.77 C186.5436,227.241 186.1146,226.813 185.5856,226.813 M224.5106,208.46 C225.0386,208.46 225.4676,208.031 225.4676,207.503 C225.4676,206.975 225.0386,206.546 224.5106,206.546 C223.9816,206.546 223.5526,206.975 223.5526,207.503 C223.5526,208.031 223.9816,208.46 224.5106,208.46 M205.7196,266.029 C205.1906,266.029 204.7616,266.458 204.7616,266.986 C204.7616,267.515 205.1906,267.943 205.7196,267.943 C206.2476,267.943 206.6766,267.515 206.6766,266.986 C206.6766,266.458 206.2476,266.029 205.7196,266.029 M211.1876,215.563 C211.7166,215.563 212.1446,215.134 212.1446,214.606 C212.1446,214.077 211.7166,213.649 211.1876,213.649 C210.6586,213.649 210.2306,214.077 210.2306,214.606 C210.2306,215.134 210.6586,215.563 211.1876,215.563 M182.4916,262.848 C181.9636,262.848 181.5346,263.276 181.5346,263.805 C181.5346,264.334 181.9636,264.763 182.4916,264.763 C183.0216,264.763 183.4496,264.334 183.4496,263.805 C183.4496,263.276 183.0216,262.848 182.4916,262.848 M176.3606,245.049 C175.8326,245.049 175.4036,245.477 175.4036,246.006 C175.4036,246.534 175.8326,246.963 176.3606,246.963 C176.8896,246.963 177.3176,246.534 177.3176,246.006 C177.3176,245.477 176.8896,245.049 176.3606,245.049 M273.8016,199.999 C274.3306,199.999 274.7596,199.57 274.7596,199.041 C274.7596,198.513 274.3306,198.084 273.8016,198.084 C273.2736,198.084 272.8446,198.513 272.8446,199.041 C272.8446,199.57 273.2736,199.999 273.8016,199.999 M226.4246,219.345 C225.8966,219.345 225.4676,219.774 225.4676,220.303 C225.4676,220.831 225.8966,221.26 226.4246,221.26 C226.9536,221.26 227.3816,220.831 227.3816,220.303 C227.3816,219.774 226.9536,219.345 226.4246,219.345 M224.5106,245.049 C223.9816,245.049 223.5526,245.477 223.5526,246.006 C223.5526,246.534 223.9816,246.963 224.5106,246.963 C225.0386,246.963 225.4676,246.534 225.4676,246.006 C225.4676,245.477 225.0386,245.049 224.5106,245.049 M226.4246,279.016 C225.8966,279.016 225.4676,279.444 225.4676,279.973 C225.4676,280.501 225.8966,280.93 226.4246,280.93 C226.9536,280.93 227.3816,280.501 227.3816,279.973 C227.3816,279.444 226.9536,279.016 226.4246,279.016 M234.5706,193.146 C234.5706,192.617 234.1426,192.189 233.6136,192.189 C233.0846,192.189 232.6566,192.617 232.6566,193.146 C232.6566,193.675 233.0846,194.104 233.6136,194.104 C234.1426,194.104 234.5706,193.675 234.5706,193.146 M229.1846,256.363 C228.6556,256.363 228.2276,256.792 228.2276,257.32 C228.2276,257.849 228.6556,258.277 229.1846,258.277 C229.7136,258.277 230.1426,257.849 230.1426,257.32 C230.1426,256.792 229.7136,256.363 229.1846,256.363 M216.4416,197.127 C215.9116,197.127 215.4836,197.556 215.4836,198.084 C215.4836,198.612 215.9116,199.041 216.4416,199.041 C216.9696,199.041 217.3986,198.612 217.3986,198.084 C217.3986,197.556 216.9696,197.127 216.4416,197.127 M213.1026,231.211 C213.1026,230.683 212.6736,230.254 212.1446,230.254 C211.6156,230.254 211.1876,230.683 211.1876,231.211 C211.1876,231.74 211.6156,232.168 212.1446,232.168 C212.6736,232.168 213.1026,231.74 213.1026,231.211 M209.6256,282.254 C209.0976,282.254 208.6686,282.683 208.6686,283.212 C208.6686,283.74 209.0976,284.169 209.6256,284.169 C210.1536,284.169 210.5826,283.74 210.5826,283.212 C210.5826,282.683 210.1536,282.254 209.6256,282.254 M222.5956,266.986 C222.0676,266.986 221.6386,267.415 221.6386,267.943 C221.6386,268.472 222.0676,268.9 222.5956,268.9 C223.1246,268.9 223.5526,268.472 223.5526,267.943 C223.5526,267.415 223.1246,266.986 222.5956,266.986 M213.1026,253.576 C212.5726,253.576 212.1446,254.005 212.1446,254.533 C212.1446,255.062 212.5726,255.49 213.1026,255.49 C213.6306,255.49 214.0596,255.062 214.0596,254.533 C214.0596,254.005 213.6306,253.576 213.1026,253.576 M222.5956,289.984 C222.0676,289.984 221.6386,290.412 221.6386,290.941 C221.6386,291.469 222.0676,291.898 222.5956,291.898 C223.1246,291.898 223.5526,291.469 223.5526,290.941 C223.5526,290.412 223.1246,289.984 222.5956,289.984 M209.6256,299.958 C209.0976,299.958 208.6686,300.387 208.6686,300.915 C208.6686,301.444 209.0976,301.872 209.6256,301.872 C210.1536,301.872 210.5826,301.444 210.5826,300.915 C210.5826,300.387 210.1536,299.958 209.6256,299.958" id="Dots" fill="#000"/></g></g><g id="Hair" transform="translate(104.000000, 398.000000) scale(1 1)"><defs><path d="M160.24,115.7617 C156.951,115.7227 145.353,115.6847 141.563,124.3727 L141.563,124.3727 C140.041,127.0627 138.496,133.6697 137.218,137.8527 L137.218,137.8527 C136.271,140.9537 134.368,142.3767 134.368,142.3767 L134.368,142.3767 C136.352,146.9397 135.722,147.8427 142.065,152.3787 L142.065,152.3787 C143.614,153.4877 149.683,156.1017 154.128,156.1017 L154.128,156.1017 C157.747,156.1017 161.598,154.9897 163.097,154.1907 L163.097,154.1907 C165.359,152.9867 170.639,150.0857 174.147,144.2077 L174.147,144.2077 C175.07,142.6587 176.011,138.4327 176.148,136.6037 L176.148,136.6037 C176.363,133.7187 175.358,129.8487 174.554,127.0867 L174.554,127.0867 C173.987,125.4647 172.868,123.3227 171.927,121.9197 L171.927,121.9197 C171.911,121.9217 168.116,116.5247 161.123,115.7407 L161.123,115.7407 C161.122,115.7407 161.121,115.7397 161.119,115.7387 L161.119,115.7387 C161.115,115.7747 160.797,115.7677 160.24,115.7617 L160.24,115.7617 Z" id="hairhijab-path-1"/><path d="M160.892,115.7647 L160.668,115.7657 C159.405,115.7567 155.669,115.6297 151.74,116.6217 L151.74,116.6217 C155.083,118.6247 158.931,118.4777 163.282,116.1807 L163.282,116.1807 C162.605,115.9767 161.885,115.8247 161.123,115.7407 L161.123,115.7407 C161.122,115.7407 161.121,115.7397 161.119,115.7387 L161.119,115.7387 C161.117,115.7557 161.039,115.7627 160.892,115.7647 L160.892,115.7647 Z" id="hairhijab-path-3"/></defs><g id="Hair/Hijab" stroke="none" stroke-width="1" fill="none" fill-rule="evenodd"><path d="M193.0004,156.112 C187.6784,143.147 188.1834,138.378 182.9794,116.661 C177.7774,94.943 157.0784,99.609 154.6724,99.694 C152.3374,99.777 148.9904,99.217 148.9904,99.217 C132.7674,97.005 120.2474,112.096 117.2864,126.395 C116.6144,129.647 116.4464,132.877 116.8654,135.89 C117.0084,136.923 119.0934,146.421 116.1544,154.685 C114.2874,159.934 129.4034,192.841 159.3454,186.481 C162.0574,185.906 164.4844,185.094 166.6714,184.104 C180.8464,178.346 178.7964,178.925 192.0284,167.163 C194.5544,164.917 194.8784,161.233 193.0004,156.112" id="Fill-1" fill="#E2A2B5"/><mask id="hairhijab-mask-2" fill="#ffffff"><use xlink:href="#hairhijab-path-1" fill="#ffffff"/></mask><use id="Skin" fill="#c3986a" xlink:href="#hairhijab-path-1"/><path d="M176.1791,135.3659 C176.5881,146.6909 165.3601,156.0879 154.4571,156.0879 C143.5541,156.0879 132.4931,147.9639 132.0191,136.3899 C131.5541,125.0669 139.7441,112.3579 147.9331,111.2609 C164.6081,109.0249 175.6791,121.5079 176.1791,135.3659" id="Fill-6" fill="#000"/><path d="M154.4564,155.0876 C144.4764,155.0876 133.4784,147.5586 133.0184,136.3496 C132.5794,125.6776 140.3144,113.2906 148.0654,112.2516 C149.3124,112.0846 150.5584,111.9996 151.7664,111.9996 C166.4254,111.9996 174.7694,124.0576 175.1804,135.4016 C175.3454,139.9836 173.4634,144.5526 169.8814,148.2676 C165.7614,152.5376 159.9944,155.0876 154.4564,155.0876" id="Fill-8" fill="#c3986a"/><path d="M144.8256,178.8259 C126.8206,175.4939 122.6596,146.5699 122.2586,143.3939 C124.7256,141.4879 127.7406,137.6469 130.1026,129.9519 C129.9786,134.0119 130.2286,138.4279 130.8796,143.2149 C130.8806,143.2219 130.8826,143.2289 130.8836,143.2379 L130.8836,143.2399 L130.8836,143.2409 C132.6616,156.2919 138.5796,161.8019 143.2346,164.1249 C143.9856,164.4989 144.7456,164.8139 145.5126,165.0779 C151.6796,168.4709 157.1516,170.1689 161.8856,170.1679 C165.0536,170.1679 167.8886,169.4059 170.3796,167.8829 C171.1876,167.3869 171.9566,166.7969 172.6906,166.1349 C167.0266,174.8129 158.8686,181.4189 144.8256,178.8259 L144.8256,178.8259 Z M138.1076,135.8939 C138.4036,134.8779 138.6686,133.8129 138.9336,132.7369 C139.9646,128.5839 141.0276,124.2869 144.1146,121.3569 C150.9486,114.8749 160.9476,116.2209 161.0166,116.2259 C168.5306,117.7929 172.8306,123.8319 174.2256,128.4769 C175.3686,132.2869 175.5896,136.4029 174.8796,140.7129 C173.8346,147.0549 169.4396,161.7639 161.0216,162.9409 C150.3976,164.4349 145.9546,154.9009 145.4986,153.8499 L144.3666,153.7799 C144.4106,153.8869 148.7636,164.0969 158.8616,164.0969 L158.8686,164.0969 C154.9426,165.2979 150.3296,165.6539 145.9196,164.1599 C145.9116,164.1559 145.9046,164.1529 145.8976,164.1489 C145.8416,164.1169 145.7776,164.0969 145.7176,164.0909 C145.0316,163.8489 144.3516,163.5629 143.6806,163.2279 C137.4036,160.0969 133.3516,153.2779 131.9356,143.5109 C135.0476,142.7179 136.6016,140.3389 137.6486,137.3389 L138.1076,135.8939 Z M138.5136,107.7179 C145.3416,100.0739 154.5866,100.1929 154.6606,100.1939 L154.7146,100.1949 L154.7636,100.1849 C154.8466,100.1719 163.0126,98.7529 170.1466,104.5929 C177.1576,110.3329 180.8416,120.8779 181.0946,135.9409 C181.1006,136.1799 181.7246,159.7639 169.8536,167.0299 C164.6876,170.1929 157.8626,169.8419 149.5276,165.9929 C154.7376,166.6159 159.8546,165.1999 163.6256,163.2009 C170.5956,159.9949 174.5496,147.9639 175.7566,140.6259 C176.4926,136.1649 176.2626,131.8969 175.0746,127.9409 C173.6016,123.0359 169.2176,116.9149 161.1896,115.2419 C160.7636,115.1799 150.6176,113.8089 143.4286,120.6339 C140.1286,123.7629 138.9776,128.4029 137.9646,132.4979 C137.6846,133.6189 137.4176,134.7069 137.1156,135.7279 C137.1006,135.7629 137.0906,135.8029 137.0836,135.8409 C136.1056,139.1269 134.7706,141.6889 131.8016,142.5079 C130.9136,135.6789 130.8256,129.6059 131.5486,124.3339 C131.5566,124.2849 131.5686,124.2409 131.5786,124.1929 C131.5836,124.1749 131.5776,124.1549 131.5796,124.1369 C132.5436,117.3089 134.8536,111.8139 138.5136,107.7179 L138.5136,107.7179 Z M184.5066,139.1269 C184.7656,139.0339 185.0516,139.1709 185.1446,139.4309 C185.1836,139.5429 189.0366,150.7279 184.1346,163.7729 C179.5106,176.0819 169.7616,184.4929 156.6836,187.4529 C156.6466,187.4619 156.6106,187.4659 156.5746,187.4659 C156.3456,187.4659 156.1386,187.3079 156.0866,187.0769 C156.0256,186.8059 156.1946,186.5389 156.4636,186.4779 C169.2026,183.5939 178.6976,175.4059 183.1996,163.4209 C187.9716,150.7139 184.2416,139.8739 184.2026,139.7649 C184.1106,139.5049 184.2476,139.2199 184.5066,139.1269 L184.5066,139.1269 Z M154.6336,99.1929 C155.4206,99.0589 163.4816,97.8539 170.7646,103.8049 C178.0236,109.7369 181.8356,120.5419 182.0946,135.9169 C182.0946,135.9269 182.1006,136.1609 182.1026,136.5829 L182.1026,136.8319 C182.0986,138.7869 181.9716,143.6289 180.9436,148.9709 C180.2096,152.7929 179.1446,156.1449 177.7946,158.9949 C177.7846,159.0289 177.7826,159.0629 177.7666,159.0969 C172.5076,169.8249 165.1976,180.4059 150.8246,180.4059 C148.8946,180.4059 146.8416,180.2169 144.6436,179.8079 C136.4706,178.2969 129.8256,171.4669 125.4296,160.0549 C122.7486,153.0919 121.6526,146.3489 121.3346,144.0409 C119.4696,145.2049 118.0606,145.2779 117.7456,145.2779 C117.7216,145.2779 117.7026,145.2769 117.6916,145.2769 C117.4156,145.2659 117.1996,145.0349 117.210198,144.7609 C117.2206,144.4829 117.4156,144.2959 117.7276,144.2769 C117.7556,144.2769 117.9216,144.2739 118.1976,144.2239 L118.3336,144.1979 C120.3606,143.7729 126.9536,141.0869 130.5636,124.1459 C131.5446,117.0399 133.9536,111.3149 137.7816,107.0359 C144.7276,99.2699 153.8026,99.1739 154.6336,99.1929 L154.6336,99.1929 Z" id="Fill-10" fill="#000"/><path d="M154.764,100.1853 C154.847,100.1713 163.013,98.7523 170.147,104.5923 C177.158,110.3323 180.841,120.8773 181.094,135.9413 C181.101499,136.1793 181.725,159.7633 169.854,167.0303 C164.688,170.1933 157.863,169.8413 149.528,165.9933 C154.738,166.6163 159.855,165.2003 163.625,163.2013 C170.595,159.9953 174.549,147.9633 175.756,140.6253 C176.493,136.1643 176.262,131.8973 175.075,127.9413 C173.602,123.0363 169.217,116.9143 161.19,115.2423 C160.764,115.1793 150.618,113.8093 143.428,120.6333 C140.128,123.7633 138.978,128.4033 137.964,132.4983 L137.116,135.7283 C137.101,135.7633 137.09,135.8023 137.083,135.8403 C136.106,139.1263 134.771,141.6893 131.801,142.5073 C130.913,135.6783 130.826,129.6063 131.548,124.3333 C131.557,124.2853 131.569,124.2413 131.578,124.1933" id="Fill-13" fill="#E2A2B5"/><mask id="hairhijab-mask-4" fill="#ffffff"><use xlink:href="#hairhijab-path-3" fill="#ffffff"/></mask><use id="Clip-17" fill="#000" xlink:href="#hairhijab-path-3"/></g></g><g id="Expression" transform="translate(201.000000, 501.000000) scale(1 1)"><g id="Expression/Happy" stroke="none" stroke-width="1" fill="none" fill-rule="evenodd"><path d="M65.5638,42.4847 C65.7318,42.7047 65.6888,43.0187 65.4678,43.1857 C63.3578,44.7897 61.4758,45.3127 59.9198,45.3127 C57.0168,45.3127 55.2448,43.4917 55.2178,43.4637 C55.0288,43.2627 55.0378,42.9477 55.2368,42.7577 C55.4378,42.5677 55.7538,42.5767 55.9438,42.7747 C56.0888,42.9257 59.5458,46.4277 64.8638,42.3897 C65.0828,42.2217 65.3978,42.2647 65.5638,42.4847 Z M61.1759,29.2677 C61.5959,29.7817 65.2429,34.3587 64.0529,36.8667 C63.5839,37.8557 62.4859,38.3567 60.7889,38.3567 C59.0919,38.3567 57.9939,37.8557 57.5249,36.8677 C56.3349,34.3597 59.9819,29.7817 60.4019,29.2677 C60.5909,29.0357 60.9859,29.0357 61.1759,29.2677 Z M60.7889,30.3977 C59.6359,31.9377 57.7339,34.9747 58.4289,36.4387 C58.7179,37.0477 59.5119,37.3567 60.7889,37.3567 C62.0659,37.3567 62.8599,37.0477 63.1489,36.4387 C63.8449,34.9747 61.9419,31.9377 60.7889,30.3977 Z M53.8972,27.8363 C54.5552,27.8363 55.0892,28.6193 55.0892,29.5843 C55.0892,30.5493 54.5552,31.3323 53.8972,31.3323 C53.2392,31.3323 52.7062,30.5493 52.7062,29.5843 C52.7062,28.6193 53.2392,27.8363 53.8972,27.8363 Z M67.769,27.8363 C68.428,27.8363 68.961,28.6193 68.961,29.5843 C68.961,30.5493 68.428,31.3323 67.769,31.3323 C67.112,31.3323 66.578,30.5493 66.578,29.5843 C66.578,28.6193 67.112,27.8363 67.769,27.8363 Z M55.0896,23.9998 C55.3656,23.9998 55.5896,24.2238 55.5896,24.4998 C55.5896,24.7758 55.3656,24.9998 55.0896,24.9998 C52.5666,24.9998 51.0876,26.4288 51.0726,26.4438 C50.9746,26.5398 50.8476,26.5878 50.7206,26.5878 C50.5916,26.5878 50.4636,26.5388 50.3666,26.4408 C50.1716,26.2448 50.1716,25.9298 50.3666,25.7348 C50.4376,25.6648 52.1356,23.9998 55.0896,23.9998 Z M66.5776,23.9998 C69.5316,23.9998 71.2296,25.6648 71.3006,25.7348 C71.4956,25.9298 71.4956,26.2448 71.3006,26.4408 C71.2036,26.5388 71.0746,26.5878 70.9466,26.5878 C70.8196,26.5878 70.6926,26.5398 70.5946,26.4438 C70.5806,26.4288 69.1006,24.9998 66.5776,24.9998 C66.3016,24.9998 66.0776,24.7758 66.0776,24.4998 C66.0776,24.2238 66.3016,23.9998 66.5776,23.9998 Z" id="Combined-Shape" fill="#000"/><path d="M51.4996066,33 C53.4327301,33 55,33.8954741 55,35 C55,36.1045259 53.4327301,37 51.4996066,37 C49.5664831,37 48,36.1045259 48,35 C48,33.8954741 49.5664831,33 51.4996066,33 Z M69.5,33 C71.4329063,33 73,33.8954741 73,35 C73,36.1045259 71.4329063,37 69.5,37 C67.5670937,37 66,36.1045259 66,35 C66,33.8954741 67.5670937,33 69.5,33 Z" id="Cheeks" fill="#E2A2B5"/></g></g><g id="Facial Hair" transform="translate(200.000000, 500.000000) scale(1 1)" fill="#000"><g id="Facial Hair/None" stroke="none" stroke-width="1" fill="none" fill-rule="evenodd" fill-opacity="0"/></g><g id="Accesories" transform="translate(104.500000, 399.000000) scale(1 1)"><g id="Accesories/Simple Glases" stroke="none" stroke-width="1" fill="none" fill-rule="evenodd"><path d="M153.6922,129 C154.5482,129 155.3622,129.369 155.9252,130.013 C156.4882,130.657 156.7462,131.513 156.6332,132.361 L156.547997,132.998134 C156.879673,132.976172 157.215343,132.9622 157.558,132.9622 C158.066,132.9622 158.558,132.9922 159.04,133.0402 L159.038766,133.04 L158.9677,132.231 C158.8947,131.403 159.1737,130.577 159.7347,129.964 C160.2957,129.352 161.0927,129 161.9237,129 L169.6487,129 C170.5047,129 171.3187,129.369 171.8817,130.013 C172.4447,130.657 172.7027,131.513 172.5897,132.361 L171.8617,137.792 C171.6827,139.129 170.6237,140.178 169.2837,140.342 L166.1967,140.721 C166.0767,140.736 165.9567,140.744 165.8357,140.744 C165.7237,140.744 165.6117,140.737 165.5017,140.725 L162.0737,140.337 C160.6737,140.179 159.5777,139.057 159.4517,137.653 L159.130009,134.055083 C158.620319,133.995157 158.094652,133.9622 157.558,133.9622 C157.168,133.9622 156.787,133.9842 156.411,134.0162 L156.411,134.0162 L155.9052,137.792 C155.7262,139.129 154.6672,140.178 153.3272,140.342 L150.2402,140.721 C150.1202,140.736 150.0002,140.744 149.8792,140.744 C149.7672,140.744 149.6552,140.737 149.5452,140.725 L146.1172,140.337 C144.7172,140.179 143.6212,139.057 143.4952,137.653 L143.0112,132.231 C142.9382,131.403 143.2172,130.577 143.7782,129.964 C144.3392,129.352 145.1362,129 145.9672,129 L153.6922,129 Z M153.6922,130 L145.9672,130 C145.4082,130 144.8932,130.227 144.5162,130.639 C144.1382,131.052 143.9582,131.585 144.0082,132.142 L144.4912,137.564 C144.5742,138.495 145.3012,139.239 146.2302,139.344 L148.2162,139.568 L151.5602,139.552 L151.5602,139.552 L153.2052,139.35 C154.0932,139.241 154.7962,138.546 154.9142,137.659 L155.6412,132.228 C155.7172,131.666 155.5462,131.099 155.1722,130.671 C154.7992,130.245 154.2592,130 153.6922,130 Z M169.6487,130 L161.9237,130 C161.3647,130 160.8497,130.227 160.4727,130.639 C160.0947,131.052 159.9147,131.585 159.9647,132.142 L160.4477,137.564 C160.5307,138.495 161.2577,139.239 162.1867,139.344 L164.1747,139.568 L167.5147,139.552 L167.5147,139.552 L169.1617,139.35 C170.0497,139.241 170.7527,138.546 170.8707,137.659 L171.5977,132.228 C171.6737,131.666 171.5027,131.099 171.1287,130.671 C170.7557,130.245 170.2157,130 169.6487,130 Z" id="Combined-Shape" fill="#000"/></g></g></g></svg>