<?xml version="1.0" encoding="UTF-8" standalone="no"?>
<svg width="102px" height="32px" viewBox="0 0 102 32" version="1.1" xmlns="http://www.w3.org/2000/svg" xmlns:xlink="http://www.w3.org/1999/xlink">
    <!-- Generator: Sketch 39 (31667) - http://www.bohemiancoding.com/sketch -->
    <title>influx_logo_102x32@1x</title>
    <desc>Created with Sketch.</desc>
    <defs></defs>
    <g id="Page-1" stroke="none" stroke-width="1" fill="none" fill-rule="evenodd">
        <g id="influx_logo_102x32">
            <g id="Group" transform="translate(0.100000, 0.100000)">
                <path d="M3.80345251,26.1450795 C1.45206997,23.3808428 0.0332767551,19.7992807 0.0332767551,15.8858983 C0.0332767551,11.9620374 1.45975422,8.37139383 3.82301244,5.60436285 L8.74233386,10.5439428 C7.62532236,12.0325929 6.96377772,13.882403 6.96377772,15.8858983 C6.96377772,17.8872979 7.62322666,19.7336152 8.73674531,21.2208681 L3.80345251,26.1450795 Z" id="Fill-6" fill="#FF764A"></path>
                <path d="M23.0129765,21.2210777 C24.1264952,19.7338248 24.7859441,17.8868089 24.7859441,15.8861079 C24.7859441,13.881914 24.1243995,12.0328024 23.007388,10.5441523 L27.9267094,5.60457242 C30.2899676,8.3716034 31.7164451,11.962247 31.7164451,15.8861079 C31.7164451,19.7994902 30.2976519,23.3810524 27.9462693,26.1452891 L23.0129765,21.2210777 Z" id="Fill-9" fill="#FFA74A"></path>
                <path d="M10.528714,23.0129765 C12.0159669,24.1264952 13.8629828,24.7859441 15.8636838,24.7859441 C17.8678777,24.7859441 19.7169893,24.1243995 21.2056393,23.007388 L26.1452193,27.927408 C23.3781883,30.2899676 19.7875447,31.7164451 15.8636838,31.7164451 C11.9503015,31.7164451 8.36873927,30.2976519 5.60450257,27.9462693 L10.528714,23.0129765 Z" id="Fill-4" fill="#FF8B4A"></path>
                <path d="M5.6159591,3.80345251 C8.3801958,1.45206997 11.961758,0.0332767551 15.8751403,0.0332767551 C19.7990012,0.0332767551 23.3896448,1.45975422 26.1566758,3.82301244 L21.2170959,8.74233386 C19.7284458,7.62532236 17.8786356,6.96377772 15.8751403,6.96377772 C13.8737408,6.96377772 12.0274234,7.62322666 10.5401705,8.73674531 L5.6159591,3.80345251 Z" id="Fill-1" fill="#FFC34A"></path>
            </g>
            <path d="M97.2932893,18.5766534 L101.555357,12.4897905 L97.9954566,12.4823138 L95.5107217,16.030883 L93.0259868,12.4823138 L89.4660868,12.4897905 L93.728154,18.5766534 L89.4660867,24.6635164 L93.0267874,24.6698497 L95.5107217,21.1224239 L97.994656,24.6698497 L101.555357,24.6635164 L97.2932893,18.5766534 Z M43.3778572,24.6564277 L40,24.6564277 L40,8.58064962 L43.3778572,8.58064962 L43.3778572,24.6564277 Z M55.8942299,13.3790258 C56.7019824,14.1422231 57.1058525,15.2382879 57.1058525,16.6672531 L57.1058525,24.6564277 L53.7524726,24.6564277 L53.7524726,17.6415427 C53.7524726,15.7903833 53.0263222,14.8648174 51.5739995,14.8648174 C50.7907243,14.8648174 50.1257664,15.1408634 49.5791056,15.6929636 C49.0324448,16.2450637 48.7591185,17.0894396 48.7591185,18.2261165 L48.7591185,24.6564277 L45.4057386,24.6564277 L45.4057386,12.4778079 L48.4164373,12.4778079 L48.5143463,14.6456023 C48.9223021,13.8499285 49.4852726,13.2491226 50.2032748,12.8431665 C50.9212771,12.4372105 51.7534944,12.2342355 52.6999519,12.2342355 C54.0217287,12.2342355 55.0864774,12.6158285 55.8942299,13.3790258 Z M63.7391808,12.4778079 L67.6065825,12.4778079 L67.6065825,14.9622464 L63.8860441,14.9622464 L63.8860441,24.6564277 L60.5326642,24.6564277 L60.5326642,14.9622464 L58.4031455,14.9622464 L58.4031455,12.4778079 L60.5326642,12.4778079 L60.5326642,11.0163736 C60.5326642,9.68483782 60.9487729,8.66590349 61.7810027,7.95954001 C62.6132326,7.25317654 63.7391737,6.9000001 65.1588599,6.9000001 C65.6973616,6.9000001 66.1909807,6.95683309 66.6397321,7.07050077 C67.0884834,7.18416846 67.4433997,7.33842943 67.7044914,7.53328832 L67.2394241,9.74979712 C66.8641048,9.50622351 66.3990421,9.38443853 65.8442222,9.38443853 C64.4408542,9.38443853 63.7391808,10.0096014 63.7391808,11.259946 L63.7391808,12.4778079 Z M72.9181405,20.7836266 C72.9181405,21.3682033 73.0038099,21.7741532 73.1751514,22.0014886 C73.3464928,22.228824 73.6606141,22.3424899 74.1175246,22.3424899 C74.3949345,22.3424899 74.6356248,22.3221924 74.8396027,22.2815968 C75.0435806,22.2410012 75.284271,22.1719898 75.5616809,22.0745603 L75.2679542,24.3884981 C75.0068625,24.5508805 74.6641847,24.676725 74.2399107,24.7660353 C73.8156367,24.8553456 73.399528,24.9000001 72.9915722,24.9000001 C71.8003412,24.9000001 70.9314084,24.6117756 70.3847476,24.0353181 C69.8380868,23.4588605 69.5647606,22.5373542 69.5647606,21.2707714 L69.5647606,7.14357249 L72.9181405,7.14357249 L72.9181405,20.7836266 Z M88.2408839,12.4778079 L88.2408839,24.6564277 L85.2546624,24.6564277 L85.1322763,22.5617051 C84.3490011,24.1205762 82.9211772,24.9000001 80.8487617,24.9000001 C79.5269849,24.9000001 78.4785542,24.5468237 77.7034382,23.8404602 C76.9283222,23.1340967 76.54077,22.0339724 76.54077,20.5400542 L76.54077,12.4778079 L79.8941499,12.4778079 L79.8941499,19.6875508 C79.8941499,20.6293688 80.0736478,21.2951267 80.4326489,21.6848445 C80.79165,22.0745623 81.3219846,22.2694182 82.0236686,22.2694182 C82.8722166,22.2694182 83.5616516,21.9974318 84.0919942,21.4534507 C84.6223367,20.9094696 84.887504,20.0935103 84.887504,19.0055481 L84.887504,12.4778079 L88.2408839,12.4778079 Z" id="type" fill="#2E3C40"></path>
        </g>
    </g>
</svg>