<svg xmlns="http://www.w3.org/2000/svg" width="40" height="40" fill-rule="nonzero"><path d="M0 20C0 8.954 8.954 0 20 0s20 8.954 20 20-8.954 20-20 20S0 31.046 0 20z" fill="#55acee"/><path d="M19.4 16.256l.042.692-.7-.085c-2.546-.325-4.77-1.426-6.66-3.277l-.923-.918-.238.678c-.504 1.51-.182 3.107.867 4.18.56.593.434.678-.532.325-.336-.113-.63-.198-.658-.155-.098.1.238 1.384.504 1.893.364.706 1.105 1.398 1.917 1.808l.685.325-.81.014c-.783 0-.81.014-.727.31.28.918 1.385 1.893 2.616 2.316l.867.297-.755.452c-1.12.65-2.434 1.017-3.75 1.045-.63.014-1.147.07-1.147.113 0 .14 1.707.932 2.7 1.243 2.98.918 6.52.523 9.177-1.045 1.89-1.116 3.777-3.333 4.66-5.48.476-1.144.95-3.234.95-4.237 0-.65.042-.734.825-1.51.462-.452.895-.946.98-1.087.14-.268.126-.268-.588-.028-1.19.424-1.357.367-.77-.268.434-.452.95-1.27.95-1.51 0-.042-.2.028-.448.155-.252.14-.81.353-1.23.48l-.755.24-.685-.466c-.378-.254-.91-.537-1.19-.62-.713-.198-1.805-.17-2.448.056-1.75.636-2.854 2.274-2.728 4.068z" fill="#fff"/></svg>